<svg version="1.2" xmlns="http://www.w3.org/2000/svg" viewBox="0 0 1000 1000" width="1000" height="1000">
	<title>The custom crow logo-ai</title>
	<style>
		.s0 { fill: #000000 }
		.s1 { fill: #1e1e1e }
		.s2 { fill: #ffc83f }
		.s3 { fill: #ffffff }
		.s4 { fill: none;stroke: #1e1e1e;stroke-miterlimit:10;stroke-width: 14 }
		.s5 { fill: #ffffff;stroke: #ffffff;stroke-miterlimit:10;stroke-width: 2 }
	</style>
	<g id="Layer 1">
		<g id="&lt;Group&gt;">
			<g id="&lt;Group&gt;">
				<path id="&lt;Compound Path&gt;" class="s0" d="m89.9 1925.4q9.8-18.4 27.9-28.7 18.1-10.3 41.7-10.3 29.9 0 50.3 15.9 20.3 16 26.2 43.4h-47.8q-4.3-9.1-11.8-13.8-7.6-4.8-17.6-4.8-15.4 0-24.6 11-9.1 11-9.1 29.3 0 18.6 9.1 29.6 9.2 11 24.6 11 10 0 17.6-4.8 7.5-4.7 11.8-13.8h47.8q-5.9 27.4-26.2 43.4-20.4 15.9-50.3 15.9-23.6 0-41.7-10.3-18.1-10.3-27.9-28.7-9.9-18.5-9.9-42.3 0-23.5 9.9-42z"/>
				<path id="&lt;Compound Path&gt;" class="s0" d="m300.6 1888v92.6q0 12.9 6 19.9 6 7 18.2 7 12.2 0 18.5-7.1 6.2-7.1 6.2-19.8v-92.6h44.4v92.6q0 21.9-9.3 37.4-9.3 15.6-25.3 23.4-15.9 7.8-35.4 7.8-19.5 0-34.8-7.8-15.3-7.8-24-23.2-8.7-15.4-8.7-37.6v-92.6z"/>
				<path id="&lt;Compound Path&gt;" class="s0" d="m432.8 2035.9q-17.9-13.2-19.2-37.9h47.3q0.7 8.4 5 12.2 4.3 3.9 11.1 3.9 6.1 0 10-3.1 4-3 4-8.5 0-7-6.6-10.8-6.5-3.9-21.2-8.6-15.7-5.2-25.3-10.1-9.6-4.9-16.7-14.3-7.2-9.4-7.2-24.6 0-15.3 7.7-26.3 7.7-11 21.3-16.7 13.6-5.6 30.8-5.6 27.9 0 44.5 13 16.6 13 17.8 36.6h-48.3q-0.2-7.3-4.4-10.9-4.2-3.6-10.7-3.6-5 0-8.2 2.9-3.2 3-3.2 8.4 0 4.5 3.6 7.8 3.5 3.3 8.7 5.7 5.2 2.3 15.4 6 15.1 5.2 25 10.3 9.8 5.1 17 14.2 7.1 9.2 7.1 23.2 0 14.3-7.1 25.6-7.2 11.4-20.6 17.9-13.5 6.6-31.8 6.6-27.9 0-45.8-13.3z"/>
				<path id="&lt;Compound Path&gt;" class="s0" d="m679 1888v35.3h-42.6v124.3h-44.4v-124.3h-42.1v-35.3z"/>
				<path id="&lt;Compound Path&gt;" fill-rule="evenodd" class="s0" d="m730.8 2038.7q-18.8-10.6-29.8-29.3-10.9-18.6-10.9-42.2 0-23.5 10.9-42.2 11-18.7 29.8-29.1 18.8-10.4 41.2-10.4 22.7 0 41.4 10.4 18.6 10.4 29.5 29.1 10.9 18.7 10.9 42.2 0 23.6-10.9 42.2-10.9 18.7-29.7 29.3-18.7 10.5-41.2 10.5-22.4 0-41.2-10.5zm68.1-41.8q9.8-11.1 9.8-29.7 0-19-9.8-30-9.9-11-26.9-11-17.2 0-26.9 11-9.8 11-9.8 30 0 18.8 9.8 29.8 9.7 11 26.9 11 17 0 26.9-11.1z"/>
				<path id="&lt;Compound Path&gt;" class="s0" d="m1060.1 1888v159.6h-44.4v-88.1l-30.1 88.1h-37.2l-30.3-88.8v88.8h-44.4v-159.6h53.7l40.1 103.7 39.1-103.7z"/>
			</g>
			<g id="&lt;Group&gt;">
				<path id="&lt;Compound Path&gt;" class="s0" d="m179.8 1741.1v20.8h-28.2v85.6h-25.9v-85.6h-28.2v-20.8z"/>
				<path id="&lt;Compound Path&gt;" class="s0" d="m268.2 1771.6q8.7 9.7 8.7 26.5v49.4h-25.7v-45.9q0-8.5-4.4-13.2-4.4-4.7-11.8-4.7-7.5 0-11.9 4.7-4.3 4.7-4.3 13.2v45.9h-26v-112.1h26v38.9q3.9-5.6 10.7-8.9 6.8-3.4 15.3-3.4 14.6 0 23.4 9.6z"/>
				<path id="&lt;Compound Path&gt;" fill-rule="evenodd" class="s0" d="m374.2 1811.4h-58.6q0.6 7.9 5.1 12.1 4.4 4.1 10.9 4.1 9.7 0 13.5-8.1h27.6q-2.1 8.3-7.6 15-5.6 6.6-13.9 10.4-8.3 3.8-18.6 3.8-12.5 0-22.2-5.3-9.7-5.3-15.1-15.2-5.5-9.8-5.5-23 0-13.2 5.4-23 5.4-9.9 15.1-15.2 9.7-5.3 22.3-5.3 12.2 0 21.8 5.2 9.5 5.1 14.9 14.7 5.4 9.5 5.4 22.2 0 3.7-0.5 7.6zm-26-14.4q0-6.6-4.6-10.6-4.5-3.9-11.4-3.9-6.5 0-10.9 3.8-4.5 3.8-5.6 10.7z"/>
			</g>
			<g id="&lt;Group&gt;">
				<path id="&lt;Compound Path&gt;" class="s0" d="m649.4 1765.7q6.6-12.3 18.7-19.2 12.1-6.9 27.9-6.9 20 0 33.6 10.7 13.7 10.7 17.6 29h-32q-2.9-6.1-7.9-9.3-5.1-3.1-11.8-3.1-10.3 0-16.4 7.3-6.1 7.4-6.1 19.6 0 12.5 6.1 19.8 6.1 7.4 16.4 7.4 6.7 0 11.8-3.2 5-3.2 7.9-9.3h32q-3.9 18.4-17.6 29-13.6 10.7-33.6 10.7-15.8 0-27.9-6.9-12.1-6.9-18.7-19.2-6.6-12.4-6.6-28.3 0-15.7 6.6-28.1z"/>
				<path id="&lt;Compound Path&gt;" class="s0" d="m803.1 1766q7.1-4.3 15.3-4.3v31.7h-8.3q-9.7 0-14.4 3.8-4.7 3.8-4.7 13.1v37.2h-29.7v-85h29.7v15q5-7.3 12.1-11.5z"/>
				<path id="&lt;Compound Path&gt;" fill-rule="evenodd" class="s0" d="m845.8 1843.2q-10.1-5.3-15.9-15.1-5.7-9.9-5.7-23.2 0-13.2 5.8-23 5.8-9.9 15.9-15.2 10.1-5.3 22.8-5.3 12.8 0 22.8 5.3 10.1 5.3 15.9 15.2 5.9 9.8 5.9 23 0 13.2-5.9 23.1-5.8 9.9-15.9 15.2-10.2 5.3-22.9 5.3-12.8 0-22.8-5.3zm33.2-25q4.1-4.7 4.1-13.3 0-8.6-4.1-13.2-4.2-4.5-10.3-4.5-6 0-10.1 4.5-4.1 4.6-4.1 13.2 0 8.8 3.9 13.3 4 4.6 10.2 4.6 6.2 0 10.4-4.6z"/>
				<path id="&lt;Compound Path&gt;" class="s0" d="m1051 1762.5l-21.7 85h-33.3l-11.8-51.5-12.3 51.5h-33.2l-21.5-85h29.6l9.5 56.3 12.6-56.3h31.8l13 56.5 9.4-56.5z"/>
			</g>
			<g id="&lt;Group&gt;">
				<path id="&lt;Path&gt;" class="s1" d="m569.5 1831.6l-2.2-13.9 18.7-3c2.6-0.4 4.8-1.7 6.4-3.8 1.5-2.1 2.1-4.7 1.7-7.3l-29.3-184.1c-0.4-2.5-1.8-4.8-3.9-6.3-2.1-1.5-4.6-2.1-7.2-1.7l-132.3 21-2.2-13.8 132.3-21.1c6.3-0.9 12.5 0.5 17.6 4.3 5.2 3.7 8.5 9.2 9.5 15.4l29.3 184.1c1 6.3-0.5 12.6-4.2 17.7-3.7 5.1-9.2 8.5-15.5 9.5z"/>
			</g>
			<g id="&lt;Group&gt;">
				<path id="&lt;Path&gt;" class="s1" d="m414.6 1746.2q0.2 0 0.3-0.1c4.9-2.5 7.9-7.5 7.9-13-0.3-19.9 5-65.8 57.4-76.7q0.6-0.1 1.1-0.2c5.5-0.7 44.4-4.7 60.7 24q0.3 0.5 0.6 1l13.1 27.6c2.3 4.7 1.8 10.2-1.2 14.4l-17.8 25.4c-2.7 3.8-3.3 8.6-1.8 13 4.1 11.5 10.9 36.3 4.8 59.7-1.4 5.4-6 9.5-11.5 10.3l-23.8 3.8-29.4 4.7q-0.4 0.1-0.8 0.1c-3 0.3-21.4 4.4-25.2 4.2-0.8 0-1.7 0.1-2.5 0.2l-12 1.4c-7.7 1-14.7-4.3-15.9-11.9l-4-25.2-4.5-28.4-3.1-19.3c-0.9-6.1 2.1-12.2 7.6-15z"/>
			</g>
			<g id="&lt;Group&gt;">
				<path id="&lt;Path&gt;" class="s2" d="m547.2 1676.7l52.6 22.2-38.3 7.9z"/>
			</g>
			<g id="&lt;Group&gt;">
				<path id="&lt;Path&gt;" class="s3" d="m525.9 1687.4c1.1 7-3.6 13.5-10.5 14.6-7 1.1-13.5-3.6-14.6-10.6-1.1-6.9 3.7-13.4 10.6-14.5 6.9-1.1 13.4 3.6 14.5 10.5z"/>
				<path id="&lt;Compound Path&gt;" fill-rule="evenodd" class="s3" d="m513.3 1703.1c-2.8 0-5.6-0.9-8-2.6-2.9-2.1-4.9-5.3-5.5-8.9-0.5-3.6 0.3-7.2 2.5-10.2 2.1-3 5.3-4.9 8.9-5.5 7.5-1.2 14.5 3.9 15.7 11.4 1.2 7.4-3.9 14.5-11.4 15.7q-1.1 0.1-2.2 0.1zm0.1-25.4q-0.9 0-1.9 0.2c-3 0.5-5.8 2.1-7.6 4.7-1.8 2.5-2.6 5.6-2.1 8.7 0.5 3.1 2.2 5.8 4.7 7.6 2.5 1.8 5.6 2.6 8.7 2.1 6.4-1 10.7-7 9.7-13.4-0.9-5.8-5.9-9.9-11.5-9.9z"/>
			</g>
			<g id="&lt;Group&gt;">
				<path id="&lt;Path&gt;" class="s0" d="m521.6 1686.8c0.5 3-1.6 5.8-4.5 6.2-3 0.5-5.8-1.5-6.3-4.5-0.5-3 1.6-5.8 4.5-6.2 3-0.5 5.8 1.5 6.3 4.5z"/>
			</g>
			<g id="&lt;Group&gt;">
				<path id="&lt;Path&gt;" class="s1" d="m437.9 1852.2c-13.2 0-24.9-9.7-27.1-23.3l-27.7-174.2c-2.5-16.3 8.4-31.5 24.4-34.1l12.8-2 2.2 13.8-12.8 2c-8.4 1.4-14.1 9.5-12.7 18.1l27.7 174.2c1.2 7.4 8 12.5 15.2 11.4l131.4-20.9 2.2 13.8-131.4 20.9q-2.1 0.3-4.2 0.3z"/>
			</g>
		</g>
		<g id="&lt;Group&gt;">
			<g id="&lt;Group&gt;">
				<path id="&lt;Path&gt;" class="s1" d="m795.6 917l-4.8-30.5 75.5-12c13.7-2.2 25.6-9.5 33.8-20.7 8.1-11.2 11.3-24.9 9.2-38.5l-117.9-740.8c-4.4-28.2-31-47.4-59.2-43l-532.4 84.7-4.8-30.5 532.4-84.7c45-7.1 87.4 23.7 94.5 68.6l117.9 740.8c3.4 21.8-1.8 43.6-14.8 61.5-12.9 17.9-32.1 29.6-53.8 33.1z"/>
			</g>
			<g id="&lt;Group&gt;">
				<path id="&lt;Path&gt;" class="s1" d="m174.7 586.3q0.5-0.3 1-0.5c19.8-10 32.1-30.3 31.8-52.5-1-80 20.2-264.6 231-308.4q2.2-0.5 4.6-0.8c22-2.9 178.5-18.8 244.2 96.5q1.1 2 2.1 4l53 111.2c8.9 18.7 7.1 40.8-4.8 57.8l-71.8 102.2c-10.7 15.2-13.3 34.6-7.2 52.1 16.4 46.7 43.8 146.4 19.4 240.3-5.6 21.9-24.1 38.2-46.4 41.7l-95.8 15.3-118.3 18.8q-1.6 0.2-3.2 0.4c-12 1.3-86.2 17.6-101.5 17-3.2-0.1-6.5 0.1-9.7 0.5l-48.6 5.9c-30.7 3.7-58.8-17.5-63.7-48l-16.1-101.3-18.2-114.3-12.3-77.8c-3.9-24.5 8.3-48.9 30.5-60.1z"/>
			</g>
			<g id="&lt;Group&gt;">
				<path id="&lt;Path&gt;" class="s2" d="m707.9 306.7l212 89.1-154.4 31.8z"/>
			</g>
			<g id="&lt;Group&gt;">
				<path id="&lt;Path&gt;" class="s3" d="m622.4 349.7c4.4 27.9-14.6 54.1-42.4 58.5-27.9 4.4-54-14.6-58.5-42.4-4.4-27.9 14.6-54.1 42.4-58.5 27.9-4.4 54.1 14.6 58.5 42.4z"/>
				<path id="&lt;Compound Path&gt;" fill-rule="evenodd" class="s3" d="m571.9 411c-11.2 0-22-3.5-31.2-10.1-11.5-8.4-19.1-20.7-21.3-34.8-2.3-14 1.1-28.1 9.4-39.6 8.4-11.6 20.7-19.1 34.8-21.4 14-2.2 28.1 1.2 39.7 9.5 11.5 8.4 19 20.7 21.3 34.8 2.2 14-1.2 28.1-9.5 39.6-8.4 11.6-20.7 19.1-34.8 21.4q-4.2 0.6-8.4 0.6zm0.2-102.1q-3.9 0-7.8 0.6c-12.9 2-24.2 9-31.9 19.6-7.6 10.5-10.7 23.4-8.7 36.3 2.1 12.9 9 24.2 19.6 31.9 10.5 7.7 23.5 10.8 36.3 8.7 12.9-2 24.3-9 31.9-19.6 7.7-10.5 10.8-23.4 8.7-36.3-2-12.9-9-24.2-19.5-31.9-8.5-6.1-18.4-9.3-28.6-9.3z"/>
			</g>
			<g id="&lt;Group&gt;">
				<path id="&lt;Path&gt;" class="s0" d="m605 347.1c1.9 12-6.2 23.2-18.2 25.2-12 1.9-23.2-6.3-25.1-18.3-1.9-11.9 6.2-23.2 18.2-25.1 12-1.9 23.2 6.3 25.1 18.2z"/>
			</g>
			<g id="&lt;Group&gt;">
				<path id="&lt;Path&gt;" class="s1" d="m268.1 1000c-46.8 0-88.3-34.7-96.1-83.2l-111.4-700.9c-4.5-28.2 2.1-56.5 18.5-79.6 16.5-23.2 40.9-38.4 68.8-42.9l51.6-8.2 4.9 30.5-51.6 8.2c-19.7 3.1-36.9 13.9-48.5 30.3-11.8 16.5-16.4 36.7-13.2 56.9l111.4 700.8c5.9 36.8 39.9 62.2 75.8 56.4l528.8-84.1 4.8 30.5-528.7 84.1q-7.6 1.2-15.1 1.2z"/>
			</g>
		</g>
		<g id="&lt;Group&gt;">
			<path id="&lt;Path&gt;" class="s4" d="m1567.4 417.6l291.2-46.3c20-3.2 38.8 10.5 42 30.5l64.5 405.2c3.1 20-10.5 38.8-30.6 42l-41.3 6.6"/>
			<path id="&lt;Path&gt;" class="s1" d="m1554.9 683q0.3-0.1 0.6-0.2c10.8-5.5 17.5-16.6 17.4-28.7-0.6-43.8 11.1-144.7 126.3-168.7q1.3-0.3 2.5-0.5c12.1-1.5 97.7-10.2 133.6 52.8q0.6 1.1 1.1 2.2l29 60.8c4.9 10.3 3.9 22.3-2.6 31.6l-39.3 55.9c-5.8 8.4-7.2 19-3.9 28.6 9 25.5 24 80 10.6 131.4-3.1 12-13.1 20.9-25.4 22.8l-52.4 8.3-64.7 10.3q-0.8 0.2-1.7 0.3c-6.6 0.7-47.2 9.6-55.5 9.2-1.8 0-3.6 0.1-5.3 0.3l-26.6 3.2c-16.8 2.1-32.2-9.5-34.8-26.2l-8.8-55.4-10-62.5-6.7-42.6c-2.2-13.4 4.5-26.7 16.6-32.9z"/>
			<g id="&lt;Group&gt;">
				<path id="&lt;Path&gt;" class="s2" d="m1846.6 530.1l115.9 48.8-84.4 17.3z"/>
			</g>
			<path id="&lt;Path&gt;" class="s5" d="m1799.8 553.7c2.4 15.2-7.9 29.5-23.2 31.9-15.2 2.5-29.5-7.9-32-23.2-2.4-15.2 8-29.5 23.2-31.9 15.3-2.5 29.6 7.9 32 23.2z"/>
			<path id="&lt;Path&gt;" class="s0" d="m1790.3 552.2c1 6.6-3.4 12.7-10 13.8-6.5 1-12.7-3.4-13.7-10-1-6.5 3.4-12.7 10-13.7 6.5-1.1 12.7 3.4 13.7 9.9z"/>
			<path id="&lt;Path&gt;" class="s4" d="m1569.9 417.3l-28.3 4.5c-26.8 4.3-45.1 30-40.7 57.4l60.9 383.3c4 24.8 26.9 41.7 51.2 37.8l289.1-46"/>
		</g>
	</g>
</svg>
